<?xml version="1.0" encoding="UTF-8"?>
<svg xmlns="http://www.w3.org/2000/svg" viewBox="-12 -12 324 324">
  <!-- Bold black icon with a strong outline for tiny sizes (favicon/app icon) -->
  <g fill="#000000" stroke="#000000" stroke-width="18" stroke-linecap="round" stroke-linejoin="round" paint-order="stroke fill">
    <path d="M 150 0 C 124.8 0 99.9 6.4 77.9 18.5 C 75.2 15.3 71.10000000000001 13.2 66.60000000000001 13.2 C 58.400000000000006 13.2 51.80000000000001 19.799999999999997 51.80000000000001 28 C 51.80000000000001 36.2 58.40000000000001 42.8 66.60000000000001 42.8 C 74.7 42.8 81.4 36.199999999999996 81.4 27.999999999999996 C 81.4 25.899999999999995 80.9 23.799999999999997 80.10000000000001 21.999999999999996 C 101.4 10.3 125.5 4.1 150 4.1 C 230.4 4.1 295.9 69.5 295.9 150 C 295.9 179.5 287.09999999999997 208 270.5 232.2 C 269.9 233.1 270.1 234.39999999999998 271 235.1 C 271.4 235.29999999999998 271.8 235.5 272.2 235.5 C 272.9 235.5 273.5 235.2 273.9 234.6 C 291 209.6 300 180.39999999999998 300 150 C 300 67.3 232.7 0 150 0 z M 66.6 38.6 C 60.7 38.6 56 33.9 56 28 C 56 22.1 60.8 17.4 66.6 17.4 C 72.5 17.4 77.19999999999999 22.2 77.19999999999999 28 C 77.3 33.9 72.5 38.6 66.6 38.6 z"/>
    <path d="M 233.4 257.3 C 225.20000000000002 257.3 218.6 263.90000000000003 218.6 272.1 C 218.6 274.20000000000005 219.1 276.3 219.9 278.1 C 198.6 289.8 174.5 295.90000000000003 150 295.90000000000003 C 69.6 295.9 4.1 230.4 4.1 150 C 4.1 120.5 12.9 92 29.5 67.8 C 30.1 66.89999999999999 29.9 65.6 29 64.89999999999999 C 28.1 64.3 26.8 64.49999999999999 26.1 65.39999999999999 C 9 90.4 0 119.6 0 150 C 0 232.7 67.3 300 150 300 C 175.2 300 200.1 293.6 222.1 281.5 C 224.79999999999998 284.7 228.9 286.8 233.4 286.8 C 241.5 286.8 248.20000000000002 280.2 248.20000000000002 272 C 248.2 263.9 241.6 257.3 233.4 257.3 z M 233.4 282.7 C 227.5 282.7 222.8 277.9 222.8 272.09999999999997 C 222.8 266.2 227.60000000000002 261.49999999999994 233.4 261.49999999999994 C 239.2 261.49999999999994 244 266.2 244 272 C 244 277.9 239.3 282.7 233.4 282.7 z"/>
  </g>
</svg>
