<?xml version="1.0" encoding="UTF-8" standalone="no" ?>
<!DOCTYPE svg PUBLIC "-//W3C//DTD SVG 1.1//EN" "http://www.w3.org/Graphics/SVG/1.1/DTD/svg11.dtd">
<svg xmlns="http://www.w3.org/2000/svg" xmlns:xlink="http://www.w3.org/1999/xlink" version="1.1" width="1280" height="1024" viewBox="0 0 1280 1024" xml:space="preserve">
<desc>Created with Fabric.js 5.3.0</desc>
<defs>
</defs>
<g transform="matrix(1 0 0 1 640 512)" id="background-logo"  >
<rect style="stroke: none; stroke-width: 0; stroke-dasharray: none; stroke-linecap: butt; stroke-dashoffset: 0; stroke-linejoin: miter; stroke-miterlimit: 4; fill: rgb(255,255,255); fill-opacity: 0; fill-rule: nonzero; opacity: 1;"  paint-order="stroke"  x="-640" y="-512" rx="0" ry="0" width="1280" height="1024" />
</g>
<g transform="matrix(3.67193089122668 0 0 3.67193089122668 639.2357711138311 528.5073439412485)" id="logo-logo"  >
<g style=""  paint-order="stroke"   >
		<g transform="matrix(2.2530800197736154 0 0 2.2530800197736154 6.5952207372560565 -48.424497183053774)"  >
<radialGradient id="SVGID_2_119120" gradientUnits="userSpaceOnUse" gradientTransform="matrix(1 0 0 1 0 0)"  cx="71.0874023" cy="1.4043962" r="54.5610542" fx="71.0874023" fy="1.4043962">
<stop offset="0%" style="stop-color:rgb(198,255,255);stop-opacity: 1"/>
<stop offset="55.07202%" style="stop-color:rgb(198,255,255);stop-opacity: 1"/>
<stop offset="100%" style="stop-color:rgb(78,171,255);stop-opacity: 1"/>
</radialGradient>
<path style="stroke: none; stroke-width: 1; stroke-dasharray: none; stroke-linecap: butt; stroke-dashoffset: 0; stroke-linejoin: miter; stroke-miterlimit: 4; fill: url(#SVGID_2_119120); fill-rule: nonzero; opacity: 1;"  paint-order="stroke"  transform=" translate(-52.9272022, -28.507423341540555)" d="M 63.6963081 30.1951122 L 76.5890808 31.476429 C 81.291954 26.8026867 84.372551 24.5356674 86.48542780000001 23.4494209 C 79.0081635 12.2171135 66.2363968 4.8122272 51.7310638 4.8122272 C 33.573883 4.8122272 18.1330795 16.4132499 12.396762799999998 32.6046447 C 22.6909523 31.3414611 36.2713241 32.9600372 52.3961143 42.4136848 C 53.734085 43.198059 55.0467758 43.9070015 56.3475112 44.5825691 L 56.1124 44.3435249 L 60.5392379 42.2790374 L 65.2125777 44.0090713 C 66.5709304 42.388809200000004 68.3863372 40.2678298 70.4290007 37.990859900000004 L 60.99758130000001 35.572666100000006 L 63.6963081 30.1951122 z M 90.4169998 30.9017315 C 88.8679962 32.6572838 86.7597732 34.694248200000004 84.1511612 37.1576195 L 83.9046555 37.391288800000005 L 81.8812561 47.700882 L 76.1321793 51.4493447 C 82.5833817 52.5388032 88.29249580000001 52.350631799999995 93.15448760000001 51.4955636 C 93.34715270000001 49.8689652 93.45764160000002 48.217247099999994 93.45764160000002 46.538807 C 93.4576416 41.007431 92.3715591 35.7323494 90.4169998 30.9017315 z" stroke-linecap="round" />
</g>
		<g transform="matrix(2.2530800197736154 0 0 2.2530800197736154 7.548364610053056 -30.81064193463027)"  >
<path style="stroke: none; stroke-width: 1; stroke-dasharray: none; stroke-linecap: butt; stroke-dashoffset: 0; stroke-linejoin: miter; stroke-miterlimit: 4; fill: rgb(252,84,4); fill-rule: nonzero; opacity: 1;"  paint-order="stroke"  transform=" translate(-53.3502426, -36.325101849999996)" d="M 75.3238144 51.2988091 L 75.4335861 43.503864300000004 L 68.065773 49.496315 C 70.5809021 50.2902374 72.9952469 50.8707161 75.3238144 51.2988091 z M 60.9975815 35.5726662 L 63.696308200000004 30.1951123 L 71.8404694 31.004522400000003 C 67.18839270000001 24.991287300000003 59.922008600000005 21.1034432 51.7310639 21.1034432 C 42.481876400000004 21.1034432 34.4101716 26.0568314 29.958381700000004 33.4391671 C 36.7223702 34.8525658 44.2326928 37.6276818 52.3961144 42.4136849 C 53.7349663 43.1985398 55.0491028 43.9100533 56.3506432 44.5857773 L 56.1124001 44.343525 L 60.539238000000005 42.2790375 L 65.2125778 44.0090714 C 66.5709305 42.388809300000005 68.38633730000001 40.2678299 70.42900080000001 37.990860000000005 L 60.9975815 35.5726662 z M 76.1337814 51.4482231 C 76.30999750000001 51.477993 76.49263 51.5189171 76.6677169 51.5467605 C 76.70013420000001 51.3842697 76.712654 51.2151985 76.7421035 51.0516624 L 76.1337814 51.4482231 z" stroke-linecap="round" />
</g>
		<g transform="matrix(2.2530800197736154 0 0 2.2530800197736154 3.4721060947207434 33.854373396969834)"  >
<radialGradient id="SVGID_4_119121" gradientUnits="userSpaceOnUse" gradientTransform="matrix(1 0 0 1 0 0)"  cx="51.7266541" cy="47.2107277" r="68.8268127" fx="51.7266541" fy="47.2107277">
<stop offset="15.21773%" style="stop-color:rgb(0,128,209);stop-opacity: 1"/>
<stop offset="22.33719%" style="stop-color:rgb(0,113,194);stop-opacity: 1"/>
<stop offset="42.327169999999995%" style="stop-color:rgb(0,77,158);stop-opacity: 1"/>
<stop offset="58.59272%" style="stop-color:rgb(0,55,136);stop-opacity: 1"/>
<stop offset="69.0017%" style="stop-color:rgb(0,47,128);stop-opacity: 1"/>
</radialGradient>
<path style="stroke: none; stroke-width: 1; stroke-dasharray: none; stroke-linecap: butt; stroke-dashoffset: 0; stroke-linejoin: miter; stroke-miterlimit: 4; fill: url(#SVGID_4_119121); fill-rule: nonzero; opacity: 1;"  paint-order="stroke"  transform=" translate(-51.541048749999995, -65.02582031720182)" d="M 9.2684164 70.2405243 C 11.390678399999999 74.02774810000001 14.0130129 77.4936752 17.0310249 80.5708237 C 17.8510265 80.1455384 18.6614799 79.7088547 19.4598941 79.2578888 C 17.7117252 76.8022232 16.1387252 74.1640778 14.8032445 71.3386459 C 12.9215508 70.9990616 11.0763674 70.6333923 9.2684164 70.2405243 z M 28.0103283 73.2347031 C 24.024988200000003 72.8078919 20.1493416 72.2659378 16.395181700000002 71.6253586 C 17.6209698 74.104538 19.029472400000003 76.4360733 20.5861035 78.6104889 C 23.286274 77.0317917 25.8420067 75.3568878 28.193924 73.74256129999999 C 28.1336613 73.5720444 28.0694656 73.4065857 28.0103283 73.2347031 z M 9.347456 46.5388069 C 9.347456 42.8287811 9.703413 39.1472397 10.367261899999999 35.559345199999996 C 8.256072999999999 35.93207159999999 6.128997299999999 36.4489975 3.9923719999999987 37.1568183 C 3.3876620999999987 40.2464866 3.082097499999999 43.3990668 3.082097499999999 46.538806799999996 C 3.082097499999999 47.848048999999996 3.149260699999999 49.1411628 3.251249499999999 50.4246444 C 5.295916499999999 50.5865745 7.386642599999998 50.736469199999995 9.5136387 50.8767318 C 9.4113293 49.4454422 9.347456 48.001152 9.347456 46.5388069 z M 9.619319 52.2004166 C 7.495050900000001 52.0610352 5.407855100000001 51.9120255 3.3649536000000007 51.7510567 C 4.0133153 57.8089104 5.785076700000001 63.5322266 8.4559584 68.7215271 C 10.3085242 69.1388702 12.2080317 69.5233154 14.1420441 69.88344570000001 C 11.7812204 64.4829407 10.2108688 58.5174522 9.619319 52.2004166 z M 28.7419815 85.8008118 C 30.7136269 86.1169663 32.698513 86.4063187 34.7099609 86.6384659 C 33.9672317 85.6008454 33.2576446 84.4907685 32.5766258 83.3262024 C 31.333744 84.1654587 30.0529079 84.9951706 28.7419815 85.8008118 z M 23.9365616 51.636631 C 23.843559300000003 49.9597168 23.795013400000002 48.2593727 23.795013400000002 46.5388069 C 23.795013400000002 42.7150764 24.0428028 38.918788899999996 24.506204600000004 35.221843699999994 C 20.3859768 34.73051449999999 16.107029000000004 34.71839899999999 11.743907000000004 35.351596799999996 C 11.038412100000004 39.000797199999994 10.662154200000003 42.75455469999999 10.662154200000003 46.5388069 C 10.662154200000003 48.0301208 10.727231000000003 49.5029754 10.835719100000004 50.9609871 C 15.0700521 51.2291603 19.4436054 51.4555244 23.9365616 51.636631 z M 45.2273827 87.4563751 C 44.2842904 84.1240539 43.4968682 80.0876846 42.864235 75.62064360000001 C 41.3619271 76.8506851 39.828888 78.06692500000001 38.2681657 79.2497864 C 36.816093599999995 80.3499146 35.2516786 81.4842301 33.6181756 82.61284640000001 C 34.495632300000004 84.12493900000001 35.425403700000004 85.53448490000001 36.4068528 86.81916810000001 C 39.3114853 87.1190414 42.253746 87.3299179 45.2273827 87.4563751 z M 51.7310638 87.6077194 C 53.434459600000004 87.6077194 55.1256561 87.5702438 56.8103523 87.51455689999999 C 57.8174019 84.05664829999999 58.7237434 79.61183929999999 59.4444847 74.33226779999998 C 56.890274 74.41667939999998 54.3224258 74.47486119999998 51.731063799999994 74.47486119999998 C 49.27122109999999 74.47486119999998 46.83304209999999 74.42037209999998 44.406421599999994 74.34278109999998 C 44.297450999999995 74.43417359999998 44.188800799999996 74.52573399999999 44.07934949999999 74.61705019999998 C 44.797283199999995 79.75636289999998 45.690063499999994 84.11410529999998 46.68041989999999 87.51567839999998 C 48.3558121 87.5707245 50.0374603 87.6077194 51.7310638 87.6077194 z M 10.9502258 52.2853966 C 11.5733108 58.6972771 13.217325200000001 64.7393189 15.693939199999999 70.1629334 C 19.5203171 70.8379365 23.4786148 71.4074173 27.5555916 71.8565369 C 25.7320748 66.1614609 24.5054817 59.769641899999996 24.0273953 52.9563065 C 19.5437489 52.7765617 15.1784601 52.5517197 10.9502258 52.2853966 z M 78.0061722 54.403965 C 75.9529953 54.142051699999996 73.8229523 53.7538376 71.620369 53.2227097 C 70.07480629999999 53.265800500000005 68.5008469 53.2897149 66.9409256 53.323497800000005 L 62.2118187 57.319347400000005 C 61.963707 62.734855700000004 61.5367355 68.057518 60.9216728 72.9600372 C 65.54317470000001 72.7763595 70.0913391 72.46702570000001 74.5128784 72.0111618 C 76.2445984 66.7287827 77.4517746 60.7810211 78.0061722 54.403965 z M 25.346508 53.0122337 C 25.8359089 59.888401 27.08601 66.3258819 28.9460392 72.01180260000001 C 29.451969100000003 72.06396480000001 29.9749126 72.09542080000001 30.4841328 72.14372250000001 C 34.3038521 69.45093530000001 38.0291214 66.7298202 41.6366005 63.98616020000001 C 41.3795815 60.53964990000001 41.1943817 56.99396130000001 41.0930328 53.41778180000001 C 35.7444496 53.3392258 30.474102 53.2069855 25.346508 53.0122337 z M 51.7323494 52.1879005 C 53.273571 52.1879005 54.804202999999994 52.1667175 56.3406105 52.1557235 C 57.5104713 51.1578216 58.6634788 50.1590423 59.799636799999995 49.1596984 C 56.97589489999999 47.9118423 54.06797399999999 46.4424361 51.06600949999999 44.6823081 C 48.465743999999994 43.1576957 45.55124279999999 41.6422309 42.41006089999999 40.2653426 C 42.35701749999999 42.353019599999996 42.30991749999999 44.4522513 42.30991749999999 46.538806799999996 C 42.30991749999999 48.438877 42.33222579999999 50.2989043 42.37314609999999 52.1204146 C 45.472847 52.1604576 48.5894775 52.1879005 51.7323494 52.1879005 z M 54.7660866 53.4814148 C 53.7535019 53.486389200000005 52.7470169 53.502597800000004 51.732349400000004 53.502597800000004 C 48.601673100000006 53.502597800000004 45.4968414 53.4753952 42.408535 53.435756700000006 C 42.5022583 56.78541190000001 42.6649094 59.98453140000001 42.8818054 63.026859300000005 C 47.000351 59.8661728 50.9657898 56.6799736 54.7660866 53.4814148 z M 45.9109726 73.0670776 C 47.8414536 73.1202011 49.7779541 73.1601562 51.7310638 73.1601562 C 54.3813247 73.1601562 57.0064659 73.09893790000001 59.617084500000004 73.0101089 C 60.161773700000005 68.7342071 60.5864983 63.952217100000006 60.849456800000006 58.7402877 C 57.0244408 62.8726311 51.809864 68.0068893 45.9109726 73.0670776 z M 65.8707275 88.2548752 C 63.2018547 88.5056305 60.503128000000004 88.6841736 57.7776794 88.7908173 C 56.933284699999994 91.4758225 55.98064419999999 93.6222382 54.9243278 95.0690918 C 55.5785446 95.02568049999999 56.2299575 94.97143559999999 56.877597800000004 94.9017868 C 60.1119423 93.7137146 63.1510582 91.4282379 65.8707275 88.2548752 z M 35.7948418 88.0803452 C 33.3025017 87.81458289999999 30.84025 87.4810105 28.4063263 87.08927159999999 C 31.8258724 89.93315129999999 35.6168633 92.17473609999999 39.678192100000004 93.6746369 C 40.60082620000001 93.9107056 41.536857600000005 94.1121979 42.4795494 94.2945099 C 40.0855865 92.7672501 37.8413544 90.6659317 35.7948418 88.0803452 z M 67.6588593 88.0814667 C 65.6084977 90.6651306 63.3639451 92.7612305 60.977283500000006 94.2855225 C 61.986976600000006 94.0875626 62.9837532 93.8510056 63.97162250000001 93.590622 C 67.95166780000001 92.0939332 71.6827164 89.8894196 75.05660250000001 87.08927159999999 C 72.6200333 87.481575 70.1547318 87.8154678 67.6588593 88.0814667 z M 51.7310638 88.9224167 C 50.175476 88.9224167 48.6288757 88.8940888 47.0882949 88.8480301 C 48.0985526 91.9733276 49.1922607 94.12648010000001 50.2911872 95.1512604 C 50.7707175 95.1653061 51.248161200000006 95.18777469999999 51.7310638 95.18777469999999 C 52.2171745 95.18777469999999 52.6991119 95.1679535 53.1821746 95.1534272 C 54.2881621 94.13121799999999 55.3872451 91.9790269 56.4011153 88.8469849 C 54.8516273 88.8936081 53.2959595 88.9224167 51.7310638 88.9224167 z M 93.6354599 54.0825119 C 92.93013 59.722377800000004 91.4549408 65.0360565 89.3419876 69.8790283 C 91.2532959 69.5229111 93.1294479 69.14192200000001 94.9614715 68.7298736 C 97.5368652 63.7601967 99.288002 58.2972679 100 52.5114403 C 98.0622177 53.1334801 95.9353027 53.6756821 93.6354599 54.0825119 z M 79.2447205 85.0118637 C 80.2109223 84.822731 81.1687012 84.6185913 82.1235047 84.4089203 C 86.9669648 80.5117645 91.0579835 75.705864 94.135376 70.2532807 C 92.3522187 70.6400529 90.53359219999999 71.0007477 88.6787796 71.3356782 C 86.2191772 76.5463257 83.0148468 81.1686325 79.2447205 85.0118637 z M 73.3816986 90.0352249 C 75.563179 88.93854520000001 77.64997100000001 87.6764831 79.63501740000001 86.2755279 C 78.93730930000001 86.4129791 78.2347031 86.5412063 77.53129580000001 86.6679153 C 76.2056808 87.8838348 74.8219757 89.0106812 73.3816986 90.0352249 z M 37.5632324 88.2519073 C 40.28242109999999 91.4315261 43.329883599999995 93.7275161 46.591510799999995 94.91414639999999 C 47.22133639999999 94.9805832 47.857021399999994 95.026001 48.493667599999995 95.0681305 C 47.42836379999999 93.6215134 46.470665 91.47863009999999 45.625549299999996 88.78824619999999 C 42.9108543 88.6809616 40.2224808 88.5024261 37.5632324 88.2519073 z M 25.7173901 87.5764236 C 27.2244301 88.5377273 28.766134299999997 89.4488906 30.3810215 90.2409668 C 29.030694999999998 89.2962647 27.737663299999998 88.25134279999999 26.4875603 87.14022059999999 C 26.2319069 87.287468 25.9745674 87.4317474 25.7173901 87.5764236 z M 87.0901337 71.6234283 C 83.3319626 72.265213 79.4515839 72.8079757 75.46126559999999 73.2354278 C 73.67915349999998 78.4106903 71.39768989999999 82.94617459999999 68.74678809999999 86.63942709999999 C 71.5102769 86.3206252 74.23635869999998 85.92053209999999 76.92321019999999 85.4446105 C 80.9812546 81.6566696 84.4455719 76.977066 87.0901337 71.6234283 z M 74.0441818 73.3740845 C 69.7133178 73.80771639999999 65.2692261 74.106865 60.752601600000006 74.2820359 C 60.082092300000006 79.279152 59.218441000000006 83.78518679999999 58.175766 87.45886999999999 C 61.161758400000004 87.33312229999999 64.1157379 87.12208559999999 67.0315247 86.82165529999999 C 69.7968521 83.2106552 72.1841507 78.6496506 74.0441818 73.3740845 z M 87.7815857 70.161644 C 89.98706059999999 65.3267746 91.5347824 59.986938499999994 92.28377529999999 54.30262 C 88.41326139999998 54.8765946 84.07830039999999 55.051765499999995 79.31291959999999 54.5570679 C 78.76670839999998 60.7949028 77.59396359999998 66.6271897 75.91881559999999 71.856453 C 79.9965134 71.4070969 83.9548111 70.8368912 87.7815857 70.161644 z M 41.061821 52.1025238 C 41.0192909 50.2469864 40.9952202 48.3887253 40.9952202 46.5388069 C 40.9952202 44.264083799999995 41.041519199999996 41.972267099999996 41.1037865 39.6996307 C 36.434539799999996 37.7574348 31.271797199999998 36.1848373 25.809106899999996 35.3978958 C 25.353729299999998 39.036827100000004 25.109710799999995 42.7736549 25.109710799999995 46.5388069 C 25.109710799999995 48.279274 25.160183099999994 49.9980736 25.255672599999993 51.692482 C 30.4017239 51.8890762 35.6912498 52.023243 41.061821 52.1025238 z" stroke-linecap="round" />
</g>
		<g transform="matrix(2.2530800197736154 0 0 2.2530800197736154 -8.990404482396116 18.54670071248279)"  >
<path style="stroke: none; stroke-width: 1; stroke-dasharray: none; stroke-linecap: butt; stroke-dashoffset: 0; stroke-linejoin: miter; stroke-miterlimit: 4; fill: rgb(0,88,168); fill-rule: nonzero; opacity: 1;"  paint-order="stroke"  transform=" translate(-46.0097269737015, -58.23171067611365)" d="M 62.9119339 54.4536362 C 49.6241302 64.8103333 19.2607327 92.9066315 3.1128306 92.3808823 C 21.2167301 95.7335815 51.7223167 67.5686798 62.9119339 54.4536362 z M 77.0786438 32.8464165 L 64.46551509999999 31.592460699999997 L 62.903911599999994 34.7042771 L 72.8683853 37.259369 C 70.0513 40.3302612 67.4759064 43.340889 65.626152 45.563858 L 60.596530900000005 43.702465000000004 L 58.353744500000005 44.748828800000005 L 62.271919200000006 48.73352800000001 C 61.82641220000001 49.12430940000001 61.386600400000006 49.521751300000005 60.93964760000001 49.91085040000001 C 51.240139 58.4638519 40.9278145 66.4365387 30.373558 73.8355637 C 25.139320299999998 77.48476409999999 19.7664222 80.94852449999999 13.966552699999998 83.5130082 C 11.636060699999998 84.4357987 9.366312899999997 85.3369218 7.0367840999999975 85.12115490000001 C -1.393043600000003 83.73062150000001 3.9207149999999977 71.2418748 5.991942299999998 66.1684419 C 2.7966738999999983 70.50356310000001 -0.39979850000000194 75.88649000000001 0.04089539999999836 81.68402880000001 C 1.1478449999999984 89.4736864 9.699320699999998 89.52736680000001 15.353388699999998 86.94162 C 29.544488799999996 80.8365861 41.3591184 70.4849473 52.999941699999994 60.6352998 C 55.549979099999995 58.4431497 59.39344679999999 55.0812951 63.18058669999999 51.7399865 L 63.69373979999999 54.4532357 L 66.59299359999999 51.910740000000004 L 66.60422409999998 48.9894219 L 76.78784069999998 40.7077218 L 76.66290169999998 49.532665300000005 L 80.69702799999997 46.9021454 L 82.69579969999998 36.7252731 C 87.10931289999998 32.5524063 91.71019639999999 28.3029079 92.01945389999997 25.813533800000002 C 90.7329178 20.7628918 83.8512955 26.0450344 77.0786438 32.8464165 z" stroke-linecap="round" />
</g>
</g>
</g>
</svg>
