<?xml version="1.0" encoding="UTF-8" standalone="no" ?>
<!DOCTYPE svg PUBLIC "-//W3C//DTD SVG 1.1//EN" "http://www.w3.org/Graphics/SVG/1.1/DTD/svg11.dtd">
<svg xmlns="http://www.w3.org/2000/svg" xmlns:xlink="http://www.w3.org/1999/xlink" version="1.1" width="1024" height="1024" viewBox="390.221 304.724 440.182 440.182" xml:space="preserve">
<desc>Created with Fabric.js 5.3.0</desc>
<defs>
</defs>
<g transform="matrix(1 0 0 1 640 512)" id="background-logo"  >
<rect style="stroke: none; stroke-width: 0; stroke-dasharray: none; stroke-linecap: butt; stroke-dashoffset: 0; stroke-linejoin: miter; stroke-miterlimit: 4; fill: rgb(255,255,255); fill-opacity: 0; fill-rule: nonzero; opacity: 1;"  paint-order="stroke"  x="-640" y="-512" rx="0" ry="0" width="1280" height="1024" />
</g>
<g transform="matrix(2.067210090800516 0 0 2.067210090800516 610.3032779057503 524.7817894137113)" id="logo-logo"  >
<g style=""  paint-order="stroke"   >
		<g transform="matrix(0.6113248840105534 0 0 0.6113248840105534 0 0)"  >
<g style=""  paint-order="stroke"   >
		<g transform="matrix(1 0 0 1 25.900000000000006 -32.25)"  >
<path style="stroke: none; stroke-width: 1; stroke-dasharray: none; stroke-linecap: butt; stroke-dashoffset: 0; stroke-linejoin: miter; stroke-miterlimit: 4; fill: rgb(0,0,0); fill-rule: nonzero; opacity: 1;"  paint-order="stroke"  transform=" translate(-175.9, -117.75)" d="M 150 0 C 124.8 0 99.9 6.4 77.9 18.5 C 75.2 15.3 71.10000000000001 13.2 66.60000000000001 13.2 C 58.400000000000006 13.2 51.80000000000001 19.799999999999997 51.80000000000001 28 C 51.80000000000001 36.2 58.40000000000001 42.8 66.60000000000001 42.8 C 74.7 42.8 81.4 36.199999999999996 81.4 27.999999999999996 C 81.4 25.899999999999995 80.9 23.799999999999997 80.10000000000001 21.999999999999996 C 101.4 10.3 125.5 4.1 150 4.1 C 230.4 4.1 295.9 69.5 295.9 150 C 295.9 179.5 287.09999999999997 208 270.5 232.2 C 269.9 233.1 270.1 234.39999999999998 271 235.1 C 271.4 235.29999999999998 271.8 235.5 272.2 235.5 C 272.9 235.5 273.5 235.2 273.9 234.6 C 291 209.6 300 180.39999999999998 300 150 C 300 67.3 232.7 0 150 0 z M 66.6 38.6 C 60.7 38.6 56 33.9 56 28 C 56 22.1 60.8 17.4 66.6 17.4 C 72.5 17.4 77.19999999999999 22.2 77.19999999999999 28 C 77.3 33.9 72.5 38.6 66.6 38.6 z" stroke-linecap="round" />
</g>
		<g transform="matrix(1 0 0 1 -25.89999999999999 32.278515985989316)"  >
<path style="stroke: none; stroke-width: 1; stroke-dasharray: none; stroke-linecap: butt; stroke-dashoffset: 0; stroke-linejoin: miter; stroke-miterlimit: 4; fill: rgb(0,0,0); fill-rule: nonzero; opacity: 1;"  paint-order="stroke"  transform=" translate(-124.10000000000001, -182.27851598598932)" d="M 233.4 257.3 C 225.20000000000002 257.3 218.6 263.90000000000003 218.6 272.1 C 218.6 274.20000000000005 219.1 276.3 219.9 278.1 C 198.6 289.8 174.5 295.90000000000003 150 295.90000000000003 C 69.6 295.9 4.1 230.4 4.1 150 C 4.1 120.5 12.9 92 29.5 67.8 C 30.1 66.89999999999999 29.9 65.6 29 64.89999999999999 C 28.1 64.3 26.8 64.49999999999999 26.1 65.39999999999999 C 9 90.4 0 119.6 0 150 C 0 232.7 67.3 300 150 300 C 175.2 300 200.1 293.6 222.1 281.5 C 224.79999999999998 284.7 228.9 286.8 233.4 286.8 C 241.5 286.8 248.20000000000002 280.2 248.20000000000002 272 C 248.2 263.9 241.6 257.3 233.4 257.3 z M 233.4 282.7 C 227.5 282.7 222.8 277.9 222.8 272.09999999999997 C 222.8 266.2 227.60000000000002 261.49999999999994 233.4 261.49999999999994 C 239.2 261.49999999999994 244 266.2 244 272 C 244 277.9 239.3 282.7 233.4 282.7 z" stroke-linecap="round" />
</g>
</g>
</g>
</g>
</g>
<g transform="matrix(1.9211538461538462 0 0 1.9211538461538462 617.5891598707766 525.7609825642791)" id="tagline-1caacb9e-5c17-4617-aeb2-a4de25c14f5a-logo"  >
<g style=""  paint-order="stroke"   >
		<g transform="matrix(1 0 0 1 0 0)" id="tagline-1caacb9e-5c17-4617-aeb2-a4de25c14f5a-logo-path-0"  >
<path style="stroke: none; stroke-width: 0; stroke-dasharray: none; stroke-linecap: butt; stroke-dashoffset: 0; stroke-linejoin: miter; stroke-miterlimit: 4; fill: rgb(0,0,0); fill-rule: nonzero; opacity: 1;"  paint-order="stroke"  transform=" translate(-33.02, 39.75)" d="M 9.01 -79.5 L 9.01 0 L 57.03 0 L 57.03 -4.56 L 15.85 -4.56 L 15.85 -79.5 Z" stroke-linecap="round" />
</g>
</g>
</g>
</svg>
